<mxfile host="65bd71144e">
    <diagram id="98llDXP2kP3yczflCDtL" name="Seite-1">
        <mxGraphModel dx="835" dy="685" grid="1" gridSize="10" guides="1" tooltips="1" connect="1" arrows="1" fold="1" page="1" pageScale="1" pageWidth="827" pageHeight="1169" math="0" shadow="0">
            <root>
                <mxCell id="0"/>
                <mxCell id="1" parent="0"/>
                <mxCell id="2" value="Worker 1&lt;br&gt;(VM)" style="rounded=0;whiteSpace=wrap;html=1;fillColor=#f5f5f5;fontColor=#333333;strokeColor=#666666;" vertex="1" parent="1">
                    <mxGeometry x="360" y="300" width="120" height="60" as="geometry"/>
                </mxCell>
                <mxCell id="4" value="Worker 2&lt;br&gt;(VM)" style="rounded=0;whiteSpace=wrap;html=1;fillColor=#f5f5f5;fontColor=#333333;strokeColor=#666666;" vertex="1" parent="1">
                    <mxGeometry x="640" y="300" width="120" height="60" as="geometry"/>
                </mxCell>
                <mxCell id="6" value="Rancher K8s" style="rounded=0;whiteSpace=wrap;html=1;fillColor=#f8cecc;strokeColor=#b85450;" vertex="1" parent="1">
                    <mxGeometry x="80" y="240" width="680" height="40" as="geometry"/>
                </mxCell>
                <mxCell id="7" value="Master&lt;br&gt;(VM)" style="rounded=0;whiteSpace=wrap;html=1;fillColor=#f5f5f5;fontColor=#333333;strokeColor=#666666;" vertex="1" parent="1">
                    <mxGeometry x="80" y="300" width="120" height="60" as="geometry"/>
                </mxCell>
                <mxCell id="8" value="" style="rounded=1;whiteSpace=wrap;html=1;dashed=1;dashPattern=1 1;" vertex="1" parent="1">
                    <mxGeometry x="80" y="10" width="200" height="210" as="geometry"/>
                </mxCell>
                <mxCell id="9" value="" style="rounded=1;whiteSpace=wrap;html=1;dashed=1;dashPattern=1 1;" vertex="1" parent="1">
                    <mxGeometry x="320" y="10" width="200" height="210" as="geometry"/>
                </mxCell>
                <mxCell id="11" value="cattle-logging-system" style="text;html=1;strokeColor=none;fillColor=none;align=center;verticalAlign=middle;whiteSpace=wrap;rounded=0;" vertex="1" parent="1">
                    <mxGeometry x="320" y="10" width="200" height="30" as="geometry"/>
                </mxCell>
                <mxCell id="12" value="security" style="text;html=1;strokeColor=none;fillColor=none;align=center;verticalAlign=middle;whiteSpace=wrap;rounded=0;" vertex="1" parent="1">
                    <mxGeometry x="125" y="10" width="110" height="30" as="geometry"/>
                </mxCell>
                <mxCell id="13" value="" style="endArrow=none;dashed=1;html=1;dashPattern=1 3;strokeWidth=2;entryX=0;entryY=0.25;entryDx=0;entryDy=0;exitX=1;exitY=0.25;exitDx=0;exitDy=0;" edge="1" parent="1">
                    <mxGeometry width="50" height="50" relative="1" as="geometry">
                        <mxPoint x="280" y="39.5" as="sourcePoint"/>
                        <mxPoint x="80" y="39.5" as="targetPoint"/>
                    </mxGeometry>
                </mxCell>
                <mxCell id="14" value="" style="endArrow=none;dashed=1;html=1;dashPattern=1 3;strokeWidth=2;entryX=0;entryY=0.25;entryDx=0;entryDy=0;exitX=1;exitY=0.25;exitDx=0;exitDy=0;" edge="1" parent="1">
                    <mxGeometry width="50" height="50" relative="1" as="geometry">
                        <mxPoint x="520" y="39.41" as="sourcePoint"/>
                        <mxPoint x="320" y="39.41" as="targetPoint"/>
                    </mxGeometry>
                </mxCell>
                <mxCell id="15" value="Elasticsearch" style="rounded=0;whiteSpace=wrap;html=1;fillColor=#fff2cc;strokeColor=#d6b656;" vertex="1" parent="1">
                    <mxGeometry x="331.5" y="110" width="177" height="30" as="geometry"/>
                </mxCell>
                <mxCell id="22" style="edgeStyle=orthogonalEdgeStyle;html=1;entryX=0.5;entryY=0;entryDx=0;entryDy=0;" edge="1" parent="1" source="16" target="15">
                    <mxGeometry relative="1" as="geometry"/>
                </mxCell>
                <mxCell id="16" value="Kibana" style="rounded=0;whiteSpace=wrap;html=1;fillColor=#e1d5e7;strokeColor=#9673a6;" vertex="1" parent="1">
                    <mxGeometry x="331.5" y="50" width="177" height="30" as="geometry"/>
                </mxCell>
                <mxCell id="20" style="edgeStyle=orthogonalEdgeStyle;html=1;entryX=0.5;entryY=1;entryDx=0;entryDy=0;" edge="1" parent="1" source="17" target="18">
                    <mxGeometry relative="1" as="geometry"/>
                </mxCell>
                <mxCell id="21" style="edgeStyle=orthogonalEdgeStyle;html=1;entryX=0.5;entryY=1;entryDx=0;entryDy=0;" edge="1" parent="1" source="17" target="15">
                    <mxGeometry relative="1" as="geometry"/>
                </mxCell>
                <mxCell id="17" value="Rancher Logging" style="rounded=0;whiteSpace=wrap;html=1;fillColor=#d5e8d4;strokeColor=#82b366;" vertex="1" parent="1">
                    <mxGeometry x="331.5" y="170" width="177" height="30" as="geometry"/>
                </mxCell>
                <mxCell id="18" value="Snowflake proxy" style="rounded=0;whiteSpace=wrap;html=1;fillColor=#dae8fc;strokeColor=#6c8ebf;" vertex="1" parent="1">
                    <mxGeometry x="91.5" y="110" width="177" height="30" as="geometry"/>
                </mxCell>
                <mxCell id="23" value="" style="rounded=1;whiteSpace=wrap;html=1;dashed=1;dashPattern=1 1;" vertex="1" parent="1">
                    <mxGeometry x="560" y="10" width="200" height="210" as="geometry"/>
                </mxCell>
                <mxCell id="24" value="longhorn-system" style="text;html=1;strokeColor=none;fillColor=none;align=center;verticalAlign=middle;whiteSpace=wrap;rounded=0;" vertex="1" parent="1">
                    <mxGeometry x="560" y="10" width="200" height="30" as="geometry"/>
                </mxCell>
                <mxCell id="25" value="" style="endArrow=none;dashed=1;html=1;dashPattern=1 3;strokeWidth=2;entryX=0;entryY=0.25;entryDx=0;entryDy=0;exitX=1;exitY=0.25;exitDx=0;exitDy=0;" edge="1" parent="1">
                    <mxGeometry width="50" height="50" relative="1" as="geometry">
                        <mxPoint x="760" y="39.40999999999997" as="sourcePoint"/>
                        <mxPoint x="560" y="39.40999999999997" as="targetPoint"/>
                    </mxGeometry>
                </mxCell>
                <mxCell id="26" value="Longhorn" style="rounded=0;whiteSpace=wrap;html=1;fillColor=#ffe6cc;strokeColor=#d79b00;" vertex="1" parent="1">
                    <mxGeometry x="571.5" y="110" width="177" height="30" as="geometry"/>
                </mxCell>
                <mxCell id="27" style="edgeStyle=orthogonalEdgeStyle;html=1;entryX=0;entryY=0.5;entryDx=0;entryDy=0;" edge="1" parent="1" source="15" target="26">
                    <mxGeometry relative="1" as="geometry"/>
                </mxCell>
            </root>
        </mxGraphModel>
    </diagram>
</mxfile>